<svg xmlns="http://www.w3.org/2000/svg" width="684.57" height="426.818" viewBox="0 0 684.57 426.818">
  <g id="logo-w" transform="translate(-794.71 -2868.262)">
    <path id="Exclusion_2" data-name="Exclusion 2" d="M52.705,299.1a32.123,32.123,0,0,1-6.519-.669,49.962,49.962,0,0,1-19.118-8.24,51.908,51.908,0,0,1-13.474-14.506,81.353,81.353,0,0,1-10.06-25.127A145.856,145.856,0,0,1,.045,220.729a224.515,224.515,0,0,1,1.668-31.52,268.6,268.6,0,0,1,5.413-30.19,364.654,364.654,0,0,1,11.423-38.511A308.934,308.934,0,0,1,33.924,84.815,264.763,264.763,0,0,1,53.4,52.437,233.855,233.855,0,0,1,77.144,23.874,50.909,50.909,0,0,1,94.213,12.307a47.3,47.3,0,0,1,17.821-3.624,36.565,36.565,0,0,1,10.849,1.558,24.487,24.487,0,0,1,8.489,4.452c5.241,4.368,8.147,11.114,8.636,20.05a59.343,59.343,0,0,1-.636,11.845,80.747,80.747,0,0,1-2.449,11.018A103.619,103.619,0,0,1,128.3,77.525a147.228,147.228,0,0,1-12.824,19.444,91.989,91.989,0,0,1-14.065,14.757,35.358,35.358,0,0,1-6.574,4.3,13.566,13.566,0,0,1-5.776,1.552,6.824,6.824,0,0,1-3.375-.837,13.117,13.117,0,0,1-3.695-3.045,14.306,14.306,0,0,1-2.337-4.048A26.559,26.559,0,0,1,78.24,99.27c.237-7.7,2.52-16.831,4.534-24.887.243-.971.518-2.071.774-3.112a27.144,27.144,0,0,1,5.984-11.159,44.767,44.767,0,0,1,9.049-7.858,60.648,60.648,0,0,1,11.867-6.176,190.523,190.523,0,0,0-8.961,18.368,95.271,95.271,0,0,0-5.147,15.286c-1.235,5.442-1.306,9.658-.209,12.532a6.739,6.739,0,0,0,4.284,4.2,5.32,5.32,0,0,0,1.7.279c2.011,0,4.171-1.135,6.421-3.373a41.107,41.107,0,0,0,6.38-8.895A117.713,117.713,0,0,0,122.6,67.163a175.827,175.827,0,0,0,5.763-19.5c3.215-13.835,3.78-24.323,1.512-28.055a8.934,8.934,0,0,0-8.1-4.227c-5.771,0-13.381,3.67-21.429,10.333-9.053,7.5-18.405,18.525-27.045,31.9C61.183,76.36,50.769,99.938,43.185,125.79a316.592,316.592,0,0,0-12.8,78.49c-.526,17.781.216,32.733,2.206,44.443,2.2,12.953,5.985,22.269,11.248,27.69a18.5,18.5,0,0,0,13.715,5.853,31.1,31.1,0,0,0,11.261-2.406c7.1-2.8,15.978-10.617,26.39-23.247,8.33-10.1,17.654-23.291,27.714-39.194,17.123-27.069,30.628-52.99,30.762-53.249.006-.078.647-7.965,2.063-20.159,1.311-11.292,3.577-28.738,6.928-47.725a219.215,219.215,0,0,1,6.526-26.98,172.79,172.79,0,0,1,9.505-24.289c7.655-15.689,16.61-26.543,25.9-31.389a7.9,7.9,0,0,1,3.4-1.084,2.05,2.05,0,0,1,1.8.874c1.221,1.764.7,6.172-1.625,13.874-2.107,6.966-5.541,16.1-9.178,25.764l0,.006c-7.026,18.68-14.99,39.852-18.3,57.494a495.2,495.2,0,0,0-6.984,52.338c-.982,12.67-1,20.276-1,20.5,0-.007,0-.022.01-.045.331-1.381,2.131-8.734,5.095-17.912,1.907-5.908,3.92-11.419,5.983-16.38a115.814,115.814,0,0,1,7.917-15.917,75.581,75.581,0,0,1,14.4-16.331c6.453-5.519,12.2-8.559,16.2-8.559a6.086,6.086,0,0,1,2.432.466c4.571,1.978,3.842,13.457,2.918,27.989-.257,4.045-.523,8.224-.7,12.538a217.469,217.469,0,0,1-3.04,27.142c-1.243,7.2-2.419,12.125-2.431,12.172.1-.087,10.932-9.937,18.516-18.221a127.751,127.751,0,0,0,11.974-15.082,136.662,136.662,0,0,1,.2-20.565,110.965,110.965,0,0,1,3.059-18.665,62.1,62.1,0,0,1,7.523-17.995,63.036,63.036,0,0,1,10.356-12.187,71.829,71.829,0,0,1,12.359-9.114c8.363-4.886,17.036-7.688,23.795-7.688a15.764,15.764,0,0,1,6.224,1.1,7.767,7.767,0,0,1,4.42,4.756,16.61,16.61,0,0,1,.4,7.656,50.332,50.332,0,0,1-2.573,9.71,164.853,164.853,0,0,1-10.294,22.008,52.636,52.636,0,0,1-9.163,12.077,74.942,74.942,0,0,1-10.508,8.681,78.977,78.977,0,0,1-12.247,7,77.094,77.094,0,0,0,.291,10.226,46.181,46.181,0,0,0,1.527,8.43,16.585,16.585,0,0,0,3.482,6.771,6.867,6.867,0,0,0,5.128,2.284,12.979,12.979,0,0,0,6.5-2.177c4.306-2.594,10.085-7.864,17.177-15.663,5.674-6.24,12.194-14.1,19.381-23.368,12.2-15.729,22.3-30.354,22.4-30.5.075-.5,1.884-12.457,5.344-27.374,2.049-8.835,4.259-16.906,6.568-23.989A124.5,124.5,0,0,1,372.391,24.9a56.429,56.429,0,0,1,11.085-14.23,44.152,44.152,0,0,1,11.01-7.412A32.629,32.629,0,0,1,406.292,0a16.746,16.746,0,0,1,2.078,2.18A26.184,26.184,0,0,1,412.207,8.6a29.238,29.238,0,0,1,2.211,10.812,41,41,0,0,1-2.893,15.2,106.584,106.584,0,0,1-10.025,18.9c-3.717,5.795-8.252,12.166-13.479,18.937-8.9,11.531-16.829,20.333-16.908,20.42a23.574,23.574,0,0,0-1.641,4.062,58.276,58.276,0,0,0-2.4,12.623c-1,11.268-.01,28.8,0,28.974l20.559-15.693a220.133,220.133,0,0,0-16.52,23.356,110.686,110.686,0,0,1,9.035,16.861,120.173,120.173,0,0,1,6.329,18.266,97.158,97.158,0,0,1,3.123,22.325,100,100,0,0,1-1.718,17.888c-1.091,5.981-3.172,14.377-6.886,20.413a34.823,34.823,0,0,1-8.744,9.831,16.668,16.668,0,0,1-9.644,3.622,10.652,10.652,0,0,1-6.638-2.283,17.725,17.725,0,0,1-5.227-7.284c-2.274-5.353-3.925-15.147-4.907-29.109-.786-11.171-1.148-25.019-1.076-41.161.122-27.467,1.48-52.422,1.494-52.67l-.026.039c-.927,1.276-9.37,12.829-20.1,25.227a244.069,244.069,0,0,1-18.661,19.547c-7.137,6.577-13.4,11.1-18.616,13.458a24.4,24.4,0,0,1-10.018,2.329,20.254,20.254,0,0,1-10.559-3.019,29.866,29.866,0,0,1-7.509-6.642,42.286,42.286,0,0,1-5.975-9.662l-.014.025a242.254,242.254,0,0,1-15.8,21.566,111.543,111.543,0,0,1-14.416,14.845c-5.456,4.478-10.165,6.748-14,6.749a8.316,8.316,0,0,1-4.422-1.216c-10.5-6.448-5.706-33.01-2.2-52.4,1.8-9.993,3.23-17.885,2.2-20.591-.474-1.249-1.156-1.882-2.027-1.882-1.074,0-2.457.959-4.109,2.851a54.134,54.134,0,0,0-5.3,7.661,235.331,235.331,0,0,0-12.161,24.4c-4.456,10.132-6.932,22-9.116,32.462-2.525,12.1-4.518,21.654-8.54,22.727a8.437,8.437,0,0,1-2.162.3,6.042,6.042,0,0,1-4.715-2.228c-1.618-1.864-2.79-4.919-3.483-9.078a69.17,69.17,0,0,1-.745-12,132.233,132.233,0,0,1,1.093-14.95.606.606,0,0,1-.024.056c-.591,1.3-3.8,8.294-8.858,18.02a442.416,442.416,0,0,1-23.318,39.772c-11.176,16.794-22.2,30.175-32.761,39.772a85.4,85.4,0,0,1-18.361,13.107A41.83,41.83,0,0,1,52.707,299.1h0ZM365.677,160.907a1.764,1.764,0,0,0-.335.026l2.164,73.606a12.346,12.346,0,0,0,2.791-1.449,21.061,21.061,0,0,0,5.733-5.812,31.875,31.875,0,0,0,4.719-12.375,65.511,65.511,0,0,0-.253-21.136c-2.041-13.2-4.92-22.657-8.556-28.109C369.079,161.371,366.607,160.907,365.677,160.907ZM308.662,78.429c-1.311,0-3.065.761-5.215,2.26a49.011,49.011,0,0,0-6.753,5.921,101.208,101.208,0,0,0-13.617,17.672,69.873,69.873,0,0,0-7.16,16.292c-1.462,5.173-1.717,9.173-.7,10.975a1.918,1.918,0,0,0,1.753,1.068,3.374,3.374,0,0,0,1.055-.191c7.741-2.58,15.268-9.864,22.37-21.649a105.355,105.355,0,0,0,8.571-17.6,46.108,46.108,0,0,0,2.122-7.447,12.045,12.045,0,0,0,.06-5.248,2.755,2.755,0,0,0-1.372-1.816A2.509,2.509,0,0,0,308.662,78.429Zm93.5-67.589c-2.061,0-5.107,2.494-8.578,7.022a99.786,99.786,0,0,0-10.495,17.975A77.742,77.742,0,0,0,378.578,48.9c-1.049,4.039-1.97,8.505-2.737,13.274-1.306,8.121-1.717,14.382-1.721,14.445.032-.032,4.259-4.276,9.407-10.5,3-3.622,5.7-7.175,8.021-10.559a83.453,83.453,0,0,0,6.91-11.825A75.046,75.046,0,0,0,405.011,22.2c.741-5.991.047-10.151-1.855-11.128A2.158,2.158,0,0,0,402.159,10.84ZM546.212,161.255h0a47.183,47.183,0,0,1-16.337-2.84c-3.63-1.335-6.775-4.7-9.9-10.585-2.79-5.262-5.237-11.925-7.826-18.979-6.191-16.863-13.207-35.975-27.74-43.681a102.041,102.041,0,0,0-13.147-6.032c1.39-.069,2.784-.1,4.144-.1a82.827,82.827,0,0,1,13.333,1.083,11.953,11.953,0,0,1,6.555,3.743,35,35,0,0,1,5.6,7.986c3.485,6.436,6.49,14.611,9.671,23.265,5.926,16.121,12.052,32.79,21.475,37.168a40.255,40.255,0,0,0,17.086,3.537,68.646,68.646,0,0,0,20.629-3.543,117.677,117.677,0,0,0,18.44-7.795,141.408,141.408,0,0,0,18.342-11.338l-.012.014A126.517,126.517,0,0,1,588.087,147.2a104.979,104.979,0,0,1-19.272,9.663A65.413,65.413,0,0,1,546.212,161.255ZM387.64,122.833h0a173.351,173.351,0,0,1,16.12-17.531,94.43,94.43,0,0,1,19.314-14.357q1.76-.948,3.409-1.84l.061-.033c7.237-3.912,12.953-7,18.038-9.122,5.413-2.256,9.785-3.263,14.178-3.263a36.415,36.415,0,0,1,12.5,2.454,90.979,90.979,0,0,0-26.757,5.568,111.4,111.4,0,0,0-20.944,10.366,107.531,107.531,0,0,0-18.531,14.484Z" transform="translate(872.746 2995.979)" fill="#fff"/>
    <path id="Path_6" data-name="Path 6" d="M-175.688,3008.906s13.877-35.941,42.187-55.647,71.053-23.177,71.053-23.177l-22.2-41.91s10.866-24.395,6.356-42.436-14-32.311-38.968-32.473c-11.36-.074-24.82,3.651-34.813,16.586-11.55,14.95-23.1,44.493-27.755,50.09-8.535,10.269-23.485,15.438-23.485,15.438s4.339,7,29.4-10.182c12.78-8.762,15.494-35.574,28.412-50.254,12.108-13.76,35.155-14.237,43.685-7.719,17.408,13.3,14.616,21.678,10.787,55.122,0,0-41.147,6.8-79.1,31.642s-39.967,63.559-69.942,66.334-32.82-29-27.2-39.689,24.424-14.99,24.424-14.99-5.127-4.717-13.6-2.22c-8.507,2.5-21.229,11.676-23.241,23.752-3.886,23.314,11.791,38.838,33.233,42.027,41.077,6.108,49.265-44.547,78.546-65.779s75.771-31.641,75.771-31.641l16.1,31.641s-19.928-3-59.978,20.1S-175.688,3008.906-175.688,3008.906Z" transform="translate(1075 55)" fill="#fff"/>
  </g>
</svg>
